<?xml version="1.0" standalone="no"?>
<!DOCTYPE svg PUBLIC "-//W3C//DTD SVG 20010904//EN"
 "http://www.w3.org/TR/2001/REC-SVG-20010904/DTD/svg10.dtd">
<svg version="1.0" xmlns="http://www.w3.org/2000/svg"
 width="500.000000pt" height="200.000000pt" viewBox="0 0 500.000000 200.000000"
 preserveAspectRatio="xMidYMid meet">

<g transform="translate(0.000000,200.000000) scale(0.100000,-0.100000)"
fill="#000000" stroke="none">
<path d="M730 1794 c-14 -2 -77 -11 -140 -20 -117 -17 -130 -34 -22 -29 28 1
52 0 52 -4 0 -3 33 -6 73 -7 39 0 108 -4 152 -9 94 -9 126 -12 161 -14 14 0
23 -4 21 -8 -3 -5 9 -8 26 -9 97 -2 446 -80 471 -105 6 -5 18 -9 28 -9 23 0
23 -16 1 -24 -10 -3 -33 -14 -51 -25 -31 -18 -31 -19 -10 -24 13 -3 72 -4 132
-2 73 2 104 -1 95 -7 -10 -7 -9 -8 6 -3 11 3 34 9 50 12 24 4 27 2 15 -7 -12
-10 -12 -11 5 -4 11 4 76 9 143 10 68 1 126 5 129 8 3 3 -25 57 -63 121 -74
125 -83 131 -137 93 -42 -30 -51 -29 -287 17 -196 38 -396 55 -622 54 -112 -1
-214 -3 -228 -5z m133 -11 c-7 -2 -21 -2 -30 0 -10 3 -4 5 12 5 17 0 24 -2 18
-5z m130 0 c-13 -2 -33 -2 -45 0 -13 2 -3 4 22 4 25 0 35 -2 23 -4z m-268 -13
c-3 -5 -25 -9 -48 -9 l-42 2 40 7 c22 4 44 8 48 9 5 0 5 -3 2 -9z m482 4 c-3
-3 -12 -4 -19 -1 -8 3 -5 6 6 6 11 1 17 -2 13 -5z m-374 -21 c-7 -2 -19 -2
-25 0 -7 3 -2 5 12 5 14 0 19 -2 13 -5z m530 0 c-7 -2 -19 -2 -25 0 -7 3 -2 5
12 5 14 0 19 -2 13 -5z m-430 -10 c-7 -2 -19 -2 -25 0 -7 3 -2 5 12 5 14 0 19
-2 13 -5z m530 0 c-7 -2 -21 -2 -30 0 -10 3 -4 5 12 5 17 0 24 -2 18 -5z
m-400 -20 c-7 -2 -19 -2 -25 0 -7 3 -2 5 12 5 14 0 19 -2 13 -5z m520 0 c-7
-2 -19 -2 -25 0 -7 3 -2 5 12 5 14 0 19 -2 13 -5z m327 -1 c0 -8 -63 -42 -78
-42 -6 0 68 49 76 50 1 0 2 -4 2 -8z m-194 -30 c-10 -2 -22 0 -28 6 -6 6 0 7
19 4 21 -5 23 -7 9 -10z m228 -21 c-6 -6 -24 19 -24 34 1 6 7 1 15 -9 8 -11
12 -22 9 -25z m-711 22 c-7 -2 -19 -2 -25 0 -7 3 -2 5 12 5 14 0 19 -2 13 -5z
m100 -20 c-7 -2 -19 -2 -25 0 -7 3 -2 5 12 5 14 0 19 -2 13 -5z m464 1 c-3 -3
-12 -4 -19 -1 -8 3 -5 6 6 6 11 1 17 -2 13 -5z m-332 -35 c5 -5 -5 -4 -23 2
-17 6 -32 13 -32 16 0 7 43 -8 55 -18z m505 -5 c0 -8 -4 -12 -10 -9 -5 3 -10
10 -10 16 0 5 5 9 10 9 6 0 10 -7 10 -16z m-435 -14 c13 -6 15 -9 5 -9 -8 0
-22 4 -30 9 -18 12 -2 12 25 0z m455 -26 c0 -8 -4 -12 -10 -9 -5 3 -10 10 -10
16 0 5 5 9 10 9 6 0 10 -7 10 -16z m-364 -9 c16 -13 17 -16 4 -25 -8 -5 -19
-10 -25 -10 -5 1 -1 6 10 12 19 11 18 12 -10 24 -17 7 -23 13 -14 14 8 0 24
-7 35 -15z m394 -43 c0 -15 -2 -15 -10 -2 -13 20 -13 33 0 25 6 -3 10 -14 10
-23z m-450 -12 c-24 -15 -36 -11 -14 4 10 8 21 12 24 10 2 -3 -2 -9 -10 -14z
m67 -6 c-3 -3 -12 -4 -19 -1 -8 3 -5 6 6 6 11 1 17 -2 13 -5z m91 -1 c-10 -2
-26 -2 -35 0 -10 3 -2 5 17 5 19 0 27 -2 18 -5z m90 0 c-10 -2 -26 -2 -35 0
-10 3 -2 5 17 5 19 0 27 -2 18 -5z"/>
<path d="M1765 1730 c-3 -5 -2 -10 4 -10 5 0 13 5 16 10 3 6 2 10 -4 10 -5 0
-13 -4 -16 -10z"/>
<path d="M365 1720 c-19 -8 -19 -9 3 -9 12 -1 22 4 22 9 0 6 -1 10 -2 9 -2 0
-12 -4 -23 -9z"/>
<path d="M428 1713 c6 -2 18 -2 25 0 6 3 1 5 -13 5 -14 0 -19 -2 -12 -5z"/>
<path d="M498 1713 c7 -3 16 -2 19 1 4 3 -2 6 -13 5 -11 0 -14 -3 -6 -6z"/>
<path d="M555 1710 c-3 -5 -2 -10 4 -10 5 0 13 5 16 10 3 6 2 10 -4 10 -5 0
-13 -4 -16 -10z"/>
<path d="M635 1710 c-16 -7 -17 -9 -3 -9 9 -1 20 4 23 9 7 11 7 11 -20 0z"/>
<path d="M695 1710 c-13 -6 -15 -9 -5 -9 8 0 22 4 30 9 18 12 2 12 -25 0z"/>
<path d="M738 1693 c7 -3 16 -2 19 1 4 3 -2 6 -13 5 -11 0 -14 -3 -6 -6z"/>
<path d="M848 1683 c6 -2 18 -2 25 0 6 3 1 5 -13 5 -14 0 -19 -2 -12 -5z"/>
<path d="M910 1680 c-13 -8 -12 -10 3 -10 9 0 17 5 17 10 0 12 -1 12 -20 0z"/>
<path d="M998 1663 c7 -3 16 -2 19 1 4 3 -2 6 -13 5 -11 0 -14 -3 -6 -6z"/>
<path d="M1058 1653 c7 -3 16 -2 19 1 4 3 -2 6 -13 5 -11 0 -14 -3 -6 -6z"/>
<path d="M1108 1643 c7 -3 16 -2 19 1 4 3 -2 6 -13 5 -11 0 -14 -3 -6 -6z"/>
<path d="M1258 1613 c7 -3 16 -2 19 1 4 3 -2 6 -13 5 -11 0 -14 -3 -6 -6z"/>
<path d="M1308 1603 c7 -3 16 -2 19 1 4 3 -2 6 -13 5 -11 0 -14 -3 -6 -6z"/>
<path d="M1360 1590 c0 -5 5 -10 11 -10 5 0 7 5 4 10 -3 6 -8 10 -11 10 -2 0
-4 -4 -4 -10z"/>
<path d="M1423 1564 c3 -4 -13 -20 -36 -37 -62 -44 -64 -47 -31 -47 20 0 25 3
16 9 -10 6 -5 14 21 30 19 12 40 28 47 36 10 12 9 15 -5 15 -10 0 -15 -3 -12
-6z"/>
<path d="M1440 1480 c-13 -8 -13 -10 2 -10 9 0 20 5 23 10 8 13 -5 13 -25 0z"/>
<path d="M1535 1480 c-16 -7 -17 -9 -3 -9 9 -1 20 4 23 9 7 11 7 11 -20 0z"/>
<path d="M1675 1480 c-16 -7 -17 -9 -3 -9 9 -1 20 4 23 9 7 11 7 11 -20 0z"/>
<path d="M1818 1483 c-10 -2 -18 -9 -18 -14 0 -6 8 -5 20 1 11 6 20 13 20 15
0 3 -1 4 -2 4 -2 -1 -11 -3 -20 -6z"/>
<path d="M1608 1473 c7 -3 16 -2 19 1 4 3 -2 6 -13 5 -11 0 -14 -3 -6 -6z"/>
<path d="M1865 1470 c-3 -5 -2 -10 4 -10 5 0 13 5 16 10 3 6 2 10 -4 10 -5 0
-13 -4 -16 -10z"/>
<path d="M218 1450 c-31 -17 -87 -85 -77 -94 2 -2 173 -18 379 -36 206 -17
376 -33 378 -35 2 -2 -4 -17 -13 -35 -9 -18 -14 -34 -12 -37 3 -2 92 9 198 26
188 29 350 74 332 92 -16 16 -260 139 -275 139 -9 0 -29 -16 -45 -36 l-30 -37
-369 37 c-203 20 -382 36 -399 36 -16 -1 -46 -10 -67 -20z m482 -30 c173 -17
327 -32 343 -35 27 -5 36 1 71 50 14 20 17 19 135 -40 66 -32 118 -61 116 -64
-7 -6 -329 -60 -334 -55 -2 2 1 15 7 29 9 20 9 27 -1 30 -6 2 -182 17 -389 33
-208 16 -381 31 -384 35 -4 4 1 18 10 33 16 23 22 25 64 20 26 -3 189 -19 362
-36z"/>
<path d="M1355 1143 c0 -32 27 -28 -319 -37 -131 -3 -241 -8 -243 -10 -2 -2 7
-13 21 -24 15 -11 26 -23 26 -26 0 -3 -102 -6 -227 -6 -124 0 -224 -2 -221 -5
5 -5 803 -105 840 -105 20 0 20 1 -3 18 -13 10 -44 31 -69 45 l-45 27 100 0
c122 0 143 -5 151 -36 3 -13 11 -24 18 -23 29 1 309 108 296 112 -73 25 -311
97 -322 97 -2 0 -4 -12 -3 -27z"/>
<path d="M814 825 l26 -34 -32 -6 c-40 -7 -633 -85 -646 -85 -5 0 -14 -12 -21
-27 -11 -24 -9 -29 21 -60 l34 -33 329 49 330 49 31 -36 c26 -30 35 -35 51
-27 152 76 221 119 238 151 10 19 16 36 14 38 -5 4 -358 56 -383 56 -16 0 -16
-4 8 -35z m341 -25 c6 0 -34 -25 -87 -56 l-98 -55 -34 26 -34 26 -336 -52
-335 -53 -26 24 c-14 13 -23 25 -21 27 1 2 155 24 341 48 186 25 340 47 342
49 2 1 -6 14 -17 29 -11 14 -20 27 -20 29 0 3 71 -6 158 -18 86 -13 162 -24
167 -24z"/>
<path d="M1368 659 c18 -20 15 -32 -8 -26 -11 3 -20 2 -20 -3 0 -4 -19 -10
-42 -14 -56 -9 -167 -42 -226 -67 -37 -16 -43 -22 -32 -31 12 -8 11 -9 -4 -4
-26 9 -67 -19 -60 -42 5 -13 4 -14 -4 -3 -8 11 -13 8 -27 -13 -22 -34 -18 -37
25 -18 19 9 40 17 45 18 6 2 48 16 95 32 47 17 104 32 128 36 24 3 46 8 50 10
4 2 36 7 72 11 35 3 67 8 71 11 4 2 18 -5 32 -16 14 -11 28 -20 32 -20 6 0
123 73 141 89 7 5 15 7 18 4 3 -4 6 -2 6 3 0 5 -51 17 -112 27 -62 9 -131 20
-153 23 -33 6 -38 4 -27 -7z"/>
<path d="M1430 526 c0 -2 8 -10 18 -17 15 -13 16 -12 3 4 -13 16 -21 21 -21
13z"/>
<path d="M617 251 c14 -12 47 -21 88 -26 36 -3 65 -10 65 -15 0 -4 -13 -13
-30 -20 -41 -17 -52 -33 -37 -53 11 -15 21 -12 104 35 50 29 91 54 90 55 -4 4
-264 43 -284 43 -16 -1 -16 -3 4 -19z"/>
<path d="M404 221 c12 -13 38 -22 72 -27 61 -7 67 -16 24 -34 -33 -14 -36 -19
-17 -43 11 -15 20 -12 97 33 47 27 81 50 75 50 -5 0 -64 9 -130 20 -147 24
-142 24 -121 1z"/>
</g>
</svg>
