<?xml version="1.0" standalone="no"?>
<!DOCTYPE svg PUBLIC "-//W3C//DTD SVG 20010904//EN"
 "http://www.w3.org/TR/2001/REC-SVG-20010904/DTD/svg10.dtd">
<svg version="1.0" xmlns="http://www.w3.org/2000/svg"
 width="500.000000pt" height="200.000000pt" viewBox="0 0 500.000000 200.000000"
 preserveAspectRatio="xMidYMid meet">

<g transform="translate(0.000000,200.000000) scale(0.100000,-0.100000)"
fill="#000000" stroke="none">
<path d="M4453 1897 c-40 -23 -73 -44 -73 -47 0 -7 250 -44 255 -38 13 13 -22
32 -76 42 l-64 12 35 18 c46 24 45 23 30 41 -18 21 -26 19 -107 -28z"/>
<path d="M4220 1870 c-52 -30 -79 -51 -70 -54 34 -11 280 -42 280 -36 0 18
-33 32 -97 42 -37 5 -70 12 -71 13 -2 2 16 13 40 26 55 27 53 26 38 44 -18 22
-26 20 -120 -35z"/>
<path d="M4101 1644 c-1 -16 -15 -28 -53 -44 -45 -19 -144 -52 -158 -52 -3 0
-15 -4 -28 -9 -13 -5 -35 -11 -50 -14 -15 -3 -38 -7 -52 -10 -33 -7 -75 -14
-132 -20 -40 -4 -49 -2 -61 16 -16 22 -26 20 -87 -21 -14 -9 -42 -28 -62 -41
-20 -13 -35 -25 -33 -27 3 -4 251 -41 274 -42 8 0 11 6 7 16 -5 13 -2 15 14
11 11 -3 18 -1 15 3 -6 9 9 15 65 25 19 3 77 20 128 37 140 45 230 114 219
169 -4 21 -4 22 -6 3z m-540 -151 c13 -16 12 -17 -3 -4 -17 13 -22 21 -14 21
2 0 10 -8 17 -17z m80 -90 c13 -16 12 -17 -3 -4 -17 13 -22 21 -14 21 2 0 10
-8 17 -17z"/>
<path d="M3550 1556 c0 -2 7 -7 16 -10 8 -3 12 -2 9 4 -6 10 -25 14 -25 6z"/>
<path d="M4510 1419 l-325 -48 -30 29 c-17 17 -37 30 -44 30 -8 0 -62 -25
-120 -56 -78 -41 -113 -65 -129 -91 -13 -19 -22 -37 -19 -39 7 -7 358 -55 379
-52 20 3 20 3 -2 31 -12 15 -20 30 -18 32 2 2 143 22 313 45 399 52 372 47
379 76 6 24 -23 76 -49 87 -5 2 -156 -18 -335 -44z m323 -34 c14 -19 15 -26 5
-29 -7 -3 -159 -24 -338 -47 -179 -22 -327 -43 -329 -45 -2 -1 7 -17 20 -35
l22 -32 -34 6 c-19 3 -88 13 -154 22 -66 9 -127 19 -135 21 -8 3 27 28 84 61
l98 55 29 -28 29 -28 323 51 c177 28 331 51 342 52 11 0 28 -11 38 -24z"/>
<path d="M3845 1075 l70 -45 -118 0 -118 0 -11 31 c-8 22 -15 28 -27 24 -9 -4
-74 -27 -145 -51 -72 -24 -134 -48 -138 -52 -7 -7 289 -102 316 -102 5 0 6 11
4 25 -5 24 -3 25 51 26 31 1 72 3 91 4 19 2 114 4 210 6 96 1 185 5 198 7 22
4 21 5 -10 28 l-32 24 35 1 c19 1 81 2 139 4 58 2 148 4 200 5 52 1 88 4 80 6
-19 4 -838 104 -854 104 -6 0 21 -21 59 -45z m-198 -157 c-3 -8 -6 -5 -6 6 -1
11 2 17 5 13 3 -3 4 -12 1 -19z"/>
<path d="M3960 809 c-169 -27 -330 -71 -330 -91 0 -3 64 -39 142 -79 l142 -72
35 42 36 41 390 -39 390 -39 46 24 c28 14 55 37 67 58 l21 36 -22 4 c-12 3
-164 17 -337 31 -173 14 -337 28 -363 31 l-48 6 20 33 c17 30 18 47 2 44 -3
-1 -89 -14 -191 -30z m40 -64 c-6 -15 -9 -30 -7 -32 2 -2 179 -17 393 -34 214
-16 390 -32 392 -34 10 -9 -33 -55 -52 -55 -11 0 -178 16 -371 35 -192 19
-361 35 -375 35 -17 0 -32 -11 -48 -35 l-24 -34 -121 61 c-67 34 -117 63 -111
65 16 5 329 60 332 58 1 -1 -2 -15 -8 -30z"/>
<path d="M3206 571 c-4 -5 3 -7 14 -4 23 6 26 13 6 13 -8 0 -17 -4 -20 -9z"/>
<path d="M3275 570 c-8 -13 5 -13 25 0 13 8 13 10 -2 10 -9 0 -20 -4 -23 -10z"/>
<path d="M3345 570 c-8 -13 5 -13 25 0 13 8 13 10 -2 10 -9 0 -20 -4 -23 -10z"/>
<path d="M3410 570 c0 -5 7 -7 15 -4 8 4 15 8 15 10 0 2 -7 4 -15 4 -8 0 -15
-4 -15 -10z"/>
<path d="M3485 570 c-3 -5 -2 -10 4 -10 5 0 13 5 16 10 3 6 2 10 -4 10 -5 0
-13 -4 -16 -10z"/>
<path d="M3568 563 c6 -2 18 -2 25 0 6 3 1 5 -13 5 -14 0 -19 -2 -12 -5z"/>
<path d="M3668 561 c10 -6 1 -16 -32 -37 -44 -28 -57 -44 -36 -44 6 0 10 4 10
8 0 4 12 15 28 25 15 9 38 26 52 37 l25 20 -30 0 c-20 0 -26 -3 -17 -9z"/>
<path d="M2988 539 l-27 -10 61 -102 c88 -148 81 -143 151 -106 36 19 65 28
77 24 22 -7 27 -25 8 -25 -6 0 -9 -3 -6 -6 3 -3 15 0 25 7 16 9 41 8 126 -10
58 -11 177 -30 264 -42 281 -38 707 -28 868 20 34 10 35 10 -95 16 -118 6
-259 15 -295 20 -16 2 -50 6 -75 9 -25 3 -61 8 -80 11 -19 3 -57 8 -84 11 -28
3 -55 8 -60 12 -6 4 -18 5 -28 4 -9 -2 -19 2 -22 7 -4 6 -13 8 -21 4 -9 -3
-21 -1 -28 5 -6 5 -30 12 -52 16 -50 9 -207 56 -218 65 -9 9 58 56 89 64 30 7
-19 9 -239 8 -110 0 -207 -3 -218 -6 -10 -4 -19 -2 -19 4 0 7 -8 7 -26 1 -33
-13 -57 -13 -49 0 3 6 5 10 3 9 -2 0 -15 -5 -30 -10z m365 -16 c-7 -2 -21 -2
-30 0 -10 3 -4 5 12 5 17 0 24 -2 18 -5z m125 -10 c-12 -15 -32 -18 -23 -4 3
5 -9 12 -27 14 -21 3 -16 4 14 3 36 -1 44 -4 36 -13z m-421 0 c-23 -4 -27 -8
-21 -26 6 -21 5 -21 -11 -5 -23 22 -11 38 28 37 31 -2 31 -2 4 -6z m101 0
c-10 -2 -26 -2 -35 0 -10 3 -2 5 17 5 19 0 27 -2 18 -5z m268 -28 c-18 -14
-18 -15 9 -25 15 -6 25 -13 22 -16 -3 -3 -20 2 -38 12 -31 16 -32 17 -14 30
10 8 24 14 29 14 6 0 2 -7 -8 -15z m-361 -35 c3 -5 2 -10 -4 -10 -5 0 -13 5
-16 10 -3 6 -2 10 4 10 5 0 13 -4 16 -10z m455 -20 c8 -5 11 -10 5 -10 -5 0
-17 5 -25 10 -8 5 -10 10 -5 10 6 0 17 -5 25 -10z m-440 -21 c0 -6 -4 -7 -10
-4 -5 3 -10 11 -10 16 0 6 5 7 10 4 6 -3 10 -11 10 -16z m530 -9 c18 -12 2
-12 -25 0 -13 6 -15 9 -5 9 8 0 22 -4 30 -9z m109 -26 c10 -9 -35 -3 -49 6
-11 8 -7 9 15 4 17 -4 32 -8 34 -10z m-605 -33 c-6 -6 -24 19 -24 34 1 6 7 1
15 -9 8 -11 12 -22 9 -25z m86 19 c-8 -5 -19 -10 -25 -10 -5 0 -3 5 5 10 8 5
20 10 25 10 6 0 3 -5 -5 -10z m145 -10 c13 -5 14 -9 5 -9 -8 0 -24 4 -35 9
-13 5 -14 9 -5 9 8 0 24 -4 35 -9z m485 0 c11 -8 7 -9 -15 -4 -37 8 -45 14
-19 14 10 0 26 -5 34 -10z m-680 -20 c-8 -5 -19 -10 -25 -10 -5 0 -3 5 5 10 8
5 20 10 25 10 6 0 3 -5 -5 -10z m773 3 c-7 -2 -19 -2 -25 0 -7 3 -2 5 12 5 14
0 19 -2 13 -5z m-460 -10 c-7 -2 -19 -2 -25 0 -7 3 -2 5 12 5 14 0 19 -2 13
-5z m580 -10 c-7 -2 -21 -2 -30 0 -10 3 -4 5 12 5 17 0 24 -2 18 -5z m-460
-10 c-7 -2 -19 -2 -25 0 -7 3 -2 5 12 5 14 0 19 -2 13 -5z m540 0 c-7 -2 -21
-2 -30 0 -10 3 -4 5 12 5 17 0 24 -2 18 -5z m150 -20 c-7 -2 -21 -2 -30 0 -10
3 -4 5 12 5 17 0 24 -2 18 -5z m-435 -10 c-10 -2 -26 -2 -35 0 -10 3 -2 5 17
5 19 0 27 -2 18 -5z m130 -10 c-10 -2 -28 -2 -40 0 -13 2 -5 4 17 4 22 1 32
-1 23 -4z m125 0 c-13 -2 -33 -2 -45 0 -13 2 -3 4 22 4 25 0 35 -2 23 -4z
m120 0 c-7 -2 -21 -2 -30 0 -10 3 -4 5 12 5 17 0 24 -2 18 -5z"/>
<path d="M3645 460 c11 -5 27 -9 35 -9 9 0 8 4 -5 9 -11 5 -27 9 -35 9 -9 0
-8 -4 5 -9z"/>
<path d="M3760 429 c0 -5 5 -7 10 -4 6 3 10 8 10 11 0 2 -4 4 -10 4 -5 0 -10
-5 -10 -11z"/>
<path d="M3850 410 c0 -5 5 -10 10 -10 6 0 10 5 10 10 0 6 -4 10 -10 10 -5 0
-10 -4 -10 -10z"/>
<path d="M3905 400 c-3 -5 -1 -10 4 -10 6 0 11 5 11 10 0 6 -2 10 -4 10 -3 0
-8 -4 -11 -10z"/>
<path d="M3965 390 c-3 -5 -1 -10 4 -10 6 0 11 5 11 10 0 6 -2 10 -4 10 -3 0
-8 -4 -11 -10z"/>
<path d="M4046 371 c-4 -5 3 -7 14 -4 23 6 26 13 6 13 -8 0 -17 -4 -20 -9z"/>
<path d="M4165 360 c-3 -6 1 -7 9 -4 18 7 21 14 7 14 -6 0 -13 -4 -16 -10z"/>
<path d="M4228 353 c7 -3 16 -2 19 1 4 3 -2 6 -13 5 -11 0 -14 -3 -6 -6z"/>
<path d="M4280 350 c-9 -6 -10 -10 -3 -10 6 0 15 5 18 10 8 12 4 12 -15 0z"/>
<path d="M4326 341 c-4 -5 3 -7 14 -4 23 6 26 13 6 13 -8 0 -17 -4 -20 -9z"/>
<path d="M4385 340 c-3 -5 -2 -10 4 -10 5 0 13 5 16 10 3 6 2 10 -4 10 -5 0
-13 -4 -16 -10z"/>
<path d="M4516 331 c-4 -5 3 -7 14 -4 23 6 26 13 6 13 -8 0 -17 -4 -20 -9z"/>
<path d="M4585 330 c-3 -5 -2 -10 4 -10 5 0 13 5 16 10 3 6 2 10 -4 10 -5 0
-13 -4 -16 -10z"/>
<path d="M4648 323 c7 -3 16 -2 19 1 4 3 -2 6 -13 5 -11 0 -14 -3 -6 -6z"/>
</g>
</svg>
